    <svg
      width="80"
      height="70"
      viewBox="0 0 542 315"
      fill="none"
      xmlns="http://www.w3.org/2000/svg"
    >
      <path
        d="M355.35 88.6511C367.562 92.8813 379.631 96.4814 391.165 101.351C406.657 107.893 421.736 115.416 437.485 122.86C438.913 123.606 439.849 124.01 440.785 124.414C441.25 124.753 441.715 125.091 442.628 125.834C445.268 127.434 447.461 128.631 449.654 129.827C449.879 130.257 450.104 130.686 450.018 131.311C439.829 126.481 430.256 120.694 420.01 116.586C398.01 107.767 375.659 99.8233 353.462 91.4949C350.28 90.3009 347.153 88.9602 344 87.6874C344.165 87.1249 344.331 86.5625 344.496 86C347.987 86.8622 351.478 87.7245 355.35 88.6511Z"
        fill="#E5E6E9"
      />
      <path
        d="M360.724 1.34407C337.996 3.02517 319.07 12.602 303.591 28.4024C293.264 38.9449 283.317 50.172 275.063 62.3546C264.918 77.3261 252.31 85.4958 234.151 88.0768C179.921 95.7851 127.275 109.853 77.67 133.476C58.0708 142.809 39.4089 154.177 20.6686 165.211C14.4451 168.875 9.33568 174.42 3.65279 179.026C2.63951 179.847 1.31125 180.28 0 180.342C16.279 160.143 37.6092 146.982 59.5506 134.67C105.42 108.93 154.616 92.8854 206.441 84.6023C217.605 82.818 228.748 80.7338 239.983 79.6039C253.65 78.2293 263.147 70.7862 271.571 60.7511C281.828 48.5327 291.975 36.1241 303.251 24.8834C317.009 11.1686 334.118 3.10274 353.444 0.191578C356.169 -0.218822 359.012 0.156086 361.8 0.1675C361.78 0.287769 361.803 0.456196 361.733 0.519642C361.491 0.736591 361.216 0.916677 360.724 1.34407Z"
        fill="#E5E6E9"
      />
      <path
        d="M244.34 294.577C241.511 289.387 238.443 284.306 235.819 279.006C233.69 274.706 232.094 270.142 231 265C245.121 266.186 256.471 273.405 268.723 278.984C267.774 281.357 266.627 283.431 265.559 286.293C265.712 289.042 265.428 291.099 265.93 292.942C267.308 297.996 269.016 302.96 270.593 307.96C270.714 308.736 270.909 309.51 270.938 310.289C270.981 311.445 271.355 313.148 270.772 313.629C269.997 314.27 268.084 314.5 267.273 313.969C263.458 311.471 259.853 308.653 255.79 305.464C255.013 304.818 254.62 304.658 254.226 304.497C254.226 304.497 254.231 304.583 254.262 304.274C253.944 303.81 253.595 303.655 253.245 303.501C253.245 303.501 253.242 303.576 253.252 303.284C252.927 302.83 252.592 302.667 252.256 302.504C252.256 302.504 252.243 302.574 252.243 302.281C251.917 301.828 251.592 301.668 251.267 301.508C251.267 301.508 251.24 301.576 251.252 301.272C250.932 300.814 250.599 300.661 250.267 300.508C250.267 300.508 250.226 300.587 250.222 300.213C248.568 298.393 246.918 296.947 245.267 295.501C245.267 295.501 245.243 295.57 245.403 295.16C245.127 294.666 244.692 294.582 244.256 294.498C244.256 294.498 244.292 294.592 244.34 294.577Z"
        fill="#040404"
      />
      <path
        d="M491.039 152.207C499.275 140.157 507.006 127.713 515.971 116.233C520.145 110.888 526.715 107.416 532.195 103.089C532.708 102.684 533.188 102.236 534.159 101.47C535.429 100.499 536.225 99.866 537.02 99.233C538.661 100.301 540.302 101.369 541.691 103.008C540.922 104.763 540.405 105.947 539.888 107.131C538.99 108.278 538.091 109.424 536.808 110.999C535.947 112.016 535.47 112.604 534.727 113.394C531.282 119.448 528.105 125.301 524.669 131.379C523.251 134.46 522.09 137.315 520.668 140.406C519.584 143.486 518.763 146.33 517.77 149.493C515.418 157.774 513.025 165.687 511.141 173.719C510.063 178.317 508.672 183.307 509.449 187.768C510.69 194.901 508.954 200.914 505.67 206.829C499.691 217.598 498.476 228.698 502.848 240.336C503.342 241.65 503.218 243.197 503.38 244.636C502.932 244.84 502.484 245.045 502.036 245.249C500.985 244.128 499.801 243.104 498.906 241.869C495.643 237.362 492.476 232.786 489.27 227.833C486.466 219.357 483.724 211.263 480.778 203.243C480.453 202.36 478.962 201.906 477.729 200.985C473.185 200.103 469.022 200.665 464.822 200.997C458.538 201.495 459.213 205.577 457.688 208.544C456.92 210.038 457.753 212.355 457.927 215.445C452.226 207.22 452.227 207.224 443.703 209.726C443.53 209.777 443.213 209.339 443.034 208.726C442.485 206.522 441.865 204.721 440.888 201.886C434.995 204.708 429.163 207.473 423.383 210.339C423.054 210.502 423.141 211.502 422.971 212.525C422.293 217.227 421.679 221.516 420.862 227.225C416.382 224.635 413.14 222.523 409.677 220.875C408.244 220.193 405.847 219.782 404.749 220.523C402.508 222.036 400.85 224.414 398.564 226.288C397.458 226.126 396.74 226.111 396.016 226.132C396.01 226.167 396.079 226.145 396.213 225.787C395.24 224.989 394.132 224.547 393.014 224.142C393.005 224.177 393.07 224.144 392.997 223.802C388.591 219.052 383.896 218.021 378.124 220.976C373.871 223.152 369.278 224.785 364.687 226.162C345.16 232.02 325.548 237.596 306.05 243.548C303.469 244.335 300.327 246.27 299.428 248.48C298.875 249.841 302.069 252.745 303.623 254.926C303.902 255.318 304.35 255.621 304.775 255.872C326.19 268.495 347.612 281.107 369.023 294.017C369.946 294.978 370.789 295.911 371.827 296.261C377.179 298.065 378.583 300.264 376.576 304.874C366.727 304.614 357.343 304.279 347.717 303.686C344.344 303.341 341.215 303.256 337.841 302.876C312.488 298.76 288.636 290.764 265.417 280.725C253.857 275.727 242.476 270.302 230.812 265.568C228.07 264.456 224.511 265.357 220.994 265.318C220.101 265.623 219.541 265.942 218.519 266.271C200.78 266.941 183.508 267.966 166.226 268.176C139.622 268.5 113.398 265.571 87.9281 256.721C86.5238 256.15 85.2064 255.894 83.5521 255.537C82.1472 254.98 81.0794 254.524 79.9581 253.798C79.2655 253.424 78.6265 253.319 77.6628 253.187C76.5636 252.788 75.7892 252.417 74.9357 251.726C72.8976 250.686 70.9385 249.965 68.6879 249.196C67.9302 248.825 67.464 248.503 66.9195 247.823C65.0784 246.776 63.3157 246.087 61.3131 245.316C60.6785 244.947 60.2837 244.661 60.0418 244.05C62.3177 239.813 60.4174 234.069 65.7933 231.51C66.0003 231.174 66.1853 231.012 66.7969 231.012C67.9136 231.282 68.6571 231.465 69.66 231.712C68.7731 232.865 68.1286 233.703 67.4841 234.541C71.489 234.25 74.9685 233.157 78.3906 231.907C78.7663 231.77 78.8119 230.729 79.3544 230.182C80.2768 230.528 80.8555 230.798 81.4342 231.068C82.757 227.595 85.7381 228.138 88.4634 228.265C89.5651 228.317 90.6469 228.793 92.1731 229.127C96.4001 229.195 100.192 229.211 104.322 229.217C105.138 228.377 105.467 227.4 106.118 226.741C109.407 223.41 108.719 215.894 116.19 217.132C116.113 217.23 116.116 217.026 116.116 217.026C116.116 217.026 116.181 217.175 116.003 217.549C110.178 215.93 106.477 219.885 101.903 222.277C99.2796 223.234 97.041 224.265 94.465 225.268C91.6872 225.206 88.8336 224.332 86.8813 225.292C80.1106 228.62 72.9882 227.162 66.0859 227.3C54.7465 227.527 43.0186 228.3 33.8073 219.37C33.2374 218.817 32.3887 218.509 31.622 218.209C22.7649 214.75 14.6308 210.168 8.06203 203.136C8.06203 203.136 7.99399 203.192 7.98531 202.816C5.65664 198.994 3.33665 195.549 1.01664 192.104C1.01664 192.104 0.998861 192.187 1.04217 191.871C0.724264 191.07 0.363073 190.585 0.00186675 190.101C0.00186675 190.101 -0.00863096 190.189 0.020162 189.751C0.361684 187.113 0.704107 184.916 0.973791 182.71C1.09574 181.713 1.07299 180.698 1.11588 179.691C1.34348 179.311 1.5711 178.931 1.73694 178.933C2.85801 178.702 4.18627 178.27 5.19954 177.449C10.8824 172.843 15.9918 167.298 22.2154 163.634C40.9557 152.6 59.6176 141.232 79.2168 131.898C128.822 108.275 181.468 94.2078 235.698 86.4995C253.857 83.9185 266.465 75.7488 276.609 60.7773C284.864 48.5947 294.811 37.3676 305.138 26.8251C320.617 11.0247 339.543 1.44788 362.042 0C361.467 0.548217 360.892 1.09644 359.83 2.03717C350.562 10.0223 345.82 19.6297 345.001 31.1926C344.005 35.2389 343.01 39.2852 342.009 44.2277C341.946 51.4368 340.659 58.0209 345.938 63.5095C346.273 64.0061 346.644 64.1434 347.019 64.2242C347.023 64.1678 346.911 64.1517 346.72 64.4547C347.003 65.2587 347.478 65.7599 347.969 66.2291C347.987 66.1972 347.923 66.2316 348.088 66.5722C348.846 67.0334 349.438 67.1539 350.023 67.2193C350.016 67.1641 349.905 67.1721 349.674 67.485C354.29 71.2787 359.136 74.7594 363.974 78.6547C364.511 83.8462 362.329 87.4196 358.558 90.3958C354.686 89.4692 351.195 88.607 347.704 87.7447C347.539 88.3072 347.373 88.8697 347.208 89.4321C350.361 90.7049 353.488 92.0457 356.67 93.2396C378.867 101.568 401.218 109.512 423.218 118.331C433.464 122.439 443.037 128.225 452.95 133.227C452.984 133.203 452.932 133.268 452.936 133.553C453.286 133.978 453.631 134.118 454.152 134.542C459.529 138.301 464.73 141.775 469.961 145.223C469.991 145.195 469.94 145.259 470.03 145.551C471.343 146.462 472.566 147.082 473.82 148.09C474.457 149.417 474.883 150.572 475.703 151.253C479.389 154.313 483.187 157.239 487.049 160.366C487.419 160.409 487.686 160.299 488.008 159.834C489.055 157.055 490.047 154.631 491.039 152.207ZM65.4821 233.808L65.5791 233.647C65.5791 233.647 65.389 233.666 65.4821 233.808Z"
        fill="#040404"
      />
      <path d="M69.5 230L74.2631 237.5H64.7369L69.5 230Z" fill="#040404" />
      <path d="M103.5 227L108.263 234.5H98.7369L103.5 227Z" fill="#040404" />
      <path d="M112.5 214L117.263 221.5H107.737L112.5 214Z" fill="#040404" />
      <path d="M109.5 220L114.263 227.5H104.737L109.5 220Z" fill="#040404" />
      <path d="M107.5 223L112.263 230.5H102.737L107.5 223Z" fill="#040404" />
      <path d="M105.5 225L110.263 232.5H100.737L105.5 225Z" fill="#040404" />
      <path d="M100.5 227L105.263 234.5H95.7369L100.5 227Z" fill="#040404" />
      <path d="M97.5 227L102.263 234.5H92.7369L97.5 227Z" fill="#040404" />
      <path d="M94.5 227L99.2631 234.5H89.7369L94.5 227Z" fill="#040404" />
      <path d="M91.5 227L96.2631 234.5H86.7369L91.5 227Z" fill="#040404" />
      <path d="M88.5 227L93.2631 234.5H83.7369L88.5 227Z" fill="#040404" />
      <path d="M85.5 227L90.2631 234.5H80.7369L85.5 227Z" fill="#040404" />
      <path d="M83.5 228L88.2631 235.5H78.7369L83.5 228Z" fill="#040404" />
      <path d="M80.5 229L85.2631 236.5H75.7369L80.5 229Z" fill="#040404" />
      <path d="M77.5 230L82.2631 237.5H72.7369L77.5 230Z" fill="#040404" />
      <path d="M73.5 230L78.2631 237.5H68.7369L73.5 230Z" fill="#040404" />
      <circle cx="80.5" cy="177.5" r="2.5" fill="#D9D9D9" />
    </svg>