<?xml version="1.0" standalone="no"?>
<!DOCTYPE svg PUBLIC "-//W3C//DTD SVG 20010904//EN"
 "http://www.w3.org/TR/2001/REC-SVG-20010904/DTD/svg10.dtd">
<svg version="1.0" xmlns="http://www.w3.org/2000/svg"
 width="640.000000pt" height="640.000000pt" viewBox="0 0 640.000000 640.000000"
 preserveAspectRatio="xMidYMid meet">
<metadata>
Created by potrace 1.14, written by Peter Selinger 2001-2017
</metadata>
<g transform="translate(0.000000,640.000000) scale(0.100000,-0.100000)"
fill="#000000" stroke="none">
<path d="M4088 5039 c-38 -9 -68 -14 -68 -11 0 3 -5 1 -12 -6 -7 -7 -21 -12
-31 -12 -10 0 -31 -6 -45 -13 -15 -8 -56 -29 -92 -47 -36 -18 -90 -49 -120
-68 -56 -37 -241 -217 -315 -306 -22 -26 -45 -53 -51 -60 -6 -6 -51 -58 -99
-116 -49 -58 -109 -122 -132 -144 -38 -34 -127 -96 -138 -96 -2 0 -16 -5 -32
-12 -40 -16 -43 -16 -243 -44 -20 -2 -45 -6 -55 -8 -11 -2 -40 -7 -65 -11 -25
-4 -53 -9 -64 -11 -10 -2 -37 -6 -60 -8 -22 -3 -52 -8 -66 -11 -14 -3 -38 -7
-55 -10 -41 -6 -111 -19 -229 -45 -123 -27 -115 -25 -211 -51 -44 -11 -84 -22
-90 -23 -5 -2 -28 -8 -50 -14 -22 -6 -43 -12 -47 -12 -4 -1 -79 -26 -165 -56
-87 -31 -162 -57 -168 -58 -5 -2 -23 -9 -40 -15 -16 -7 -46 -19 -65 -26 -19
-7 -57 -23 -85 -36 -27 -12 -55 -23 -62 -25 -21 -4 -406 -198 -441 -221 -18
-13 -35 -23 -38 -23 -12 0 -218 -129 -304 -190 -127 -91 -149 -110 -252 -213
-77 -78 -88 -93 -89 -125 0 -21 -3 -50 -5 -66 -10 -56 108 -218 201 -278 59
-37 142 -78 159 -78 8 0 16 -3 18 -7 9 -20 100 -73 153 -89 81 -23 388 -28
455 -6 25 8 64 14 88 13 45 0 130 32 182 69 38 27 40 9 4 -46 -33 -51 -63 -72
-75 -52 -7 10 -9 11 -9 0 0 -9 -7 -11 -20 -7 -13 4 -20 2 -20 -7 0 -10 -2 -11
-8 0 -5 7 -16 10 -25 6 -10 -4 -17 -1 -17 6 0 10 -4 9 -16 -1 -13 -10 -17 -10
-24 0 -4 8 -10 9 -14 3 -3 -5 -17 -8 -30 -7 -14 2 -27 -3 -30 -12 -3 -8 -11
-11 -16 -8 -6 4 -17 1 -25 -5 -8 -7 -15 -9 -15 -4 0 5 -5 1 -11 -9 -10 -17
-12 -17 -29 -2 -16 14 -18 14 -23 0 -8 -18 -28 -20 -24 -2 1 8 -8 11 -28 9
-32 -3 -75 -42 -76 -70 -1 -22 -5 -44 -13 -70 -6 -19 6 -27 108 -77 63 -30
121 -55 128 -55 8 0 18 -4 24 -9 9 -8 221 -74 274 -85 102 -22 171 -35 210
-40 25 -3 56 -8 70 -11 124 -24 797 -23 1018 2 26 3 76 6 112 6 l65 2 21 -62
c44 -128 123 -263 196 -336 76 -77 207 -177 230 -177 37 0 33 57 -14 194 -25
73 -29 122 -11 159 16 32 18 33 71 7 22 -11 46 -20 52 -20 5 0 18 -4 28 -9 9
-5 28 -14 42 -20 28 -12 259 -90 287 -96 10 -3 61 -16 114 -29 194 -50 282
-61 557 -71 101 -4 152 -2 153 5 1 5 2 16 3 23 1 6 -1 19 -5 28 -8 16 -10 18
-339 213 -118 71 -231 139 -251 152 -19 13 -37 24 -40 24 -20 0 -230 138 -256
168 -34 40 -32 59 10 86 18 12 241 83 362 116 17 5 68 20 115 33 47 14 130 39
186 55 56 16 141 46 190 66 120 49 137 48 214 -16 19 -15 42 -28 51 -28 9 0
33 16 54 36 33 31 43 35 73 30 20 -3 38 -9 41 -13 3 -5 30 -21 59 -36 36 -20
52 -24 53 -15 0 7 2 22 5 33 8 44 17 111 16 128 0 11 15 25 41 38 182 92 172
90 190 37 8 -24 19 -42 25 -41 81 18 87 16 124 -26 l35 -41 -3 44 c-2 25 1 48
6 51 6 4 8 10 5 14 -2 5 6 19 19 33 22 21 35 24 113 27 74 2 93 -1 112 -16 14
-12 39 -68 72 -167 46 -135 85 -211 136 -264 7 -7 13 -17 13 -20 0 -4 12 -20
27 -37 l27 -29 7 25 c3 13 3 29 -1 34 -15 24 -32 121 -31 181 1 68 27 161 65
228 32 57 46 129 43 211 -3 62 1 95 28 215 4 14 20 72 37 130 17 58 31 110 32
115 22 100 135 331 216 441 73 99 75 113 25 141 -16 9 -25 6 -56 -20 -19 -18
-46 -39 -59 -47 -49 -32 -139 -105 -140 -114 0 -5 -8 -16 -18 -25 -10 -9 -28
-33 -41 -53 -12 -21 -26 -38 -31 -38 -4 0 -13 -13 -20 -29 -6 -16 -19 -37 -29
-47 -9 -11 -28 -37 -41 -59 -13 -22 -26 -42 -29 -45 -19 -17 -100 -151 -110
-182 -7 -21 -17 -40 -22 -44 -10 -6 -43 17 -104 70 -16 14 -33 26 -36 26 -3 0
-11 10 -16 23 -6 13 -51 50 -99 82 -49 32 -91 61 -94 64 -5 6 -13 11 -72 49
-15 9 -29 24 -31 32 -3 8 -31 29 -63 45 -33 17 -61 33 -64 36 -3 3 -22 12 -42
20 -21 7 -38 17 -38 21 0 4 -5 8 -11 8 -5 0 -60 24 -122 54 -192 93 -429 197
-482 210 -5 2 -17 6 -25 9 -27 11 -104 38 -155 54 -27 8 -51 16 -53 18 -2 2 7
20 20 42 41 65 33 89 -47 150 -97 74 -149 126 -170 169 -26 55 -24 163 5 274
5 19 12 55 15 80 14 117 60 211 143 294 l57 57 -60 -2 c-33 -1 -90 -10 -127
-20z m82 -1059 c0 -5 -2 -10 -4 -10 -3 0 -8 5 -11 10 -3 6 -1 10 4 10 6 0 11
-4 11 -10z m80 -30 c0 -5 -2 -10 -4 -10 -3 0 -8 5 -11 10 -3 6 -1 10 4 10 6 0
11 -4 11 -10z m45 -18 c-3 -3 -11 0 -18 7 -9 10 -8 11 6 5 10 -3 15 -9 12 -12z
m45 -12 c8 -5 11 -10 5 -10 -5 0 -17 5 -25 10 -8 5 -10 10 -5 10 6 0 17 -5 25
-10z m45 -28 c-3 -3 -11 0 -18 7 -9 10 -8 11 6 5 10 -3 15 -9 12 -12z m66 -19
c13 -16 12 -17 -3 -4 -17 13 -22 21 -14 21 2 0 10 -8 17 -17z m49 -13 c8 -5
11 -10 5 -10 -5 0 -17 5 -25 10 -8 5 -10 10 -5 10 6 0 17 -5 25 -10z m45 -20
c3 -6 -1 -7 -9 -4 -18 7 -21 14 -7 14 6 0 13 -4 16 -10z m121 -43 c4 -3 -4 -4
-16 -2 -12 2 -25 7 -28 10 -3 3 4 4 16 2 12 -2 24 -6 28 -10z m89 -37 c3 -6
-1 -7 -9 -4 -18 7 -21 14 -7 14 6 0 13 -4 16 -10z m105 -46 c0 -2 -9 0 -20 6
-11 6 -20 13 -20 16 0 2 9 0 20 -6 11 -6 20 -13 20 -16z m30 -4 c0 -5 -2 -10
-4 -10 -3 0 -8 5 -11 10 -3 6 -1 10 4 10 6 0 11 -4 11 -10z"/>
</g>
</svg>
